<svg xmlns="http://www.w3.org/2000/svg" xmlns:xlink="http://www.w3.org/1999/xlink" version="1.1" x="0px" y="0px" viewBox="0 0 24 24" enable-background="new 0 0 24 24" xml:space="preserve">
    <path d="M0.738,23.762c-0.128,0-0.256-0.049-0.354-0.146c-0.195-0.195-0.195-0.512,0-0.707L22.909,0.384  c0.195-0.195,0.512-0.195,0.707,0c0.195,0.195,0.195,0.512,0,0.707L1.091,23.616C0.994,23.713,0.866,23.762,0.738,23.762z"></path>
    <path d="M23.262,23.762c-0.128,0-0.256-0.049-0.354-0.146L0.384,1.091c-0.195-0.195-0.195-0.512,0-0.707  c0.195-0.195,0.512-0.195,0.707,0l22.525,22.525c0.195,0.195,0.195,0.512,0,0.707C23.518,23.713,23.39,23.762,23.262,23.762z"></path>
</svg>
