<?xml version="1.0" encoding="utf-8"?>
<!-- Generator: Adobe Illustrator 21.0.2, SVG Export Plug-In . SVG Version: 6.00 Build 0)  -->
<svg version="1.1" id="Layer_1" xmlns="http://www.w3.org/2000/svg" xmlns:xlink="http://www.w3.org/1999/xlink" x="0px" y="0px"
	 viewBox="0 0 612 511.2" style="enable-background:new 0 0 612 511.2;" xml:space="preserve">
<style type="text/css">
	.st0{font-family:'NBInternational-Bold';}
	.st1{font-size:74.1993px;}
	.st2{letter-spacing:-1;}
	.st3{letter-spacing:-2;}
	.st4{letter-spacing:1;}
</style>
<g>
	<text transform="matrix(1 0 0 1 18.4577 170.7348)"><tspan x="0" y="0" class="st0 st1 st2">Chines</tspan><tspan x="233.1" y="0" class="st0 st1">e</tspan></text>
</g>
<g>
	<text transform="matrix(1 0 0 1 22.9098 240.4077)"><tspan x="0" y="0" class="st0 st1 st2">i</tspan><tspan x="19.4" y="0" class="st0 st1">n</tspan><tspan x="62.6" y="0" class="st0 st1 st3"> </tspan><tspan x="80.5" y="0" class="st0 st1">t</tspan><tspan x="109.1" y="0" class="st0 st1 st2">h</tspan><tspan x="151.6" y="0" class="st0 st1 st4">e</tspan></text>
</g>
<g>
	<text transform="matrix(1 0 0 1 22.9098 310.0805)"><tspan x="0" y="0" class="st0 st1 st2">Info</tspan><tspan x="127.4" y="0" class="st0 st1">rm</tspan><tspan x="218.7" y="0" class="st0 st1 st3">a</tspan><tspan x="259.5" y="0" class="st0 st1">t</tspan><tspan x="288.1" y="0" class="st0 st1 st3">i</tspan><tspan x="306" y="0" class="st0 st1 st2">o</tspan><tspan x="348.1" y="0" class="st0 st1">n</tspan></text>
</g>
<g>
	<text transform="matrix(1 0 0 1 21.4255 379.7544)"><tspan x="0" y="0" class="st0 st1 st3">A</tspan><tspan x="50.7" y="0" class="st0 st1 st2">g</tspan><tspan x="93.3" y="0" class="st0 st1">e</tspan></text>
</g>
</svg>
