<svg id="Layer_1" data-name="Layer 1" xmlns="http://www.w3.org/2000/svg" viewBox="0 0 612 511.16"><title>Artboard 1</title><path d="M379.34,218.15c-.07.07-.07.15,0,.3l9.42,21.22c.15.3-.07.52-.37.52h-8.53a.63.63,0,0,1-.37-.22l-8.61-19.44c-.07-.15-.15-.37-.37-.37H358.86c-.22,0-.3.07-.3.3v19.37a.35.35,0,0,1-.37.37H350a.35.35,0,0,1-.37-.37v-51.5a.35.35,0,0,1,.37-.37h21.74a16.19,16.19,0,0,1,7.57,30.2Zm-8-6.16a8,8,0,0,0-.3-15.88H358.86a.27.27,0,0,0-.3.3v15.21a.35.35,0,0,0,.37.37Z"/><path d="M407.61,240.93c-10.09,0-14.69-5.19-14.69-11.95,0-6.38,5.42-12,16.25-12h7c1.48,0,2.23-.89,2.23-1.63,0-1.56-.52-5.27-7.79-5.27-5.64,0-7.27,2.37-7.49,4.9a.35.35,0,0,1-.37.37h-8.09a.35.35,0,0,1-.37-.37c0-8.76,7.57-13.06,16.32-13.06,10.24,0,16.7,4.82,16.7,14.1v14.4a2.39,2.39,0,0,0,2.67,2.37h1.11a.35.35,0,0,1,.37.37v6.68a.35.35,0,0,1-.37.37h-3.78c-3.86,0-5.86-1.48-7.27-3.56a.42.42,0,0,0-.67,0C417.4,238.55,413.47,240.93,407.61,240.93Zm10.76-16.18a.35.35,0,0,0-.37-.37h-8.46c-6.6,0-7.72,2.67-7.72,4.6,0,1.56,1.34,3.78,5.79,3.78C415.25,232.76,418.37,228.46,418.37,224.75Z"/><path d="M452.13,240.93c-10.46,0-17-7.94-17-19.52s7.2-19.52,17-19.52a14,14,0,0,1,9.65,3.56c.3.3.67.15.67-.22V188.32a.35.35,0,0,1,.37-.37H471a.35.35,0,0,1,.37.37v51.5a.35.35,0,0,1-.37.37h-7c-.45,0-.59-.07-.74-.37l-.74-2.37c-.15-.3-.52-.3-.82,0A14.77,14.77,0,0,1,452.13,240.93Zm1.48-8.16c5.94,0,8.83-4.67,8.83-11.35,0-7.42-2.89-11.35-8.83-11.35-6.31,0-9.57,4.67-9.57,11.35S447.3,232.76,453.61,232.76Z"/><path d="M479.28,198.48a.35.35,0,0,1-.37-.37v-9.79a.35.35,0,0,1,.37-.37h9.65a.35.35,0,0,1,.37.37v9.79a.35.35,0,0,1-.37.37Zm.74,41.7a.35.35,0,0,1-.37-.37V203a.35.35,0,0,1,.37-.37h8.16a.35.35,0,0,1,.37.37v36.8a.35.35,0,0,1-.37.37Z"/><path d="M531.59,215c.07.3-.15.37-.37.37h-8.38a.56.56,0,0,1-.52-.37c-1.26-3.27-3.71-5.19-8-5.19-6.23,0-9.2,5-9.2,11.65s3,11.65,9.2,11.65c5,0,6.9-1.93,8.16-5.19a.56.56,0,0,1,.52-.37h8.38c.22,0,.45.07.37.37-1.56,8.46-8.09,13.06-17.44,13.06-11.58,0-18.18-7.94-18.18-19.52s6.6-19.52,18.18-19.52C523.73,201.9,530.33,207,531.59,215Z"/><path d="M550.51,240.93c-10.09,0-14.69-5.19-14.69-11.95,0-6.38,5.42-12,16.25-12h7c1.48,0,2.23-.89,2.23-1.63,0-1.56-.52-5.27-7.79-5.27-5.64,0-7.27,2.37-7.49,4.9a.35.35,0,0,1-.37.37h-8.09a.35.35,0,0,1-.37-.37c0-8.76,7.57-13.06,16.32-13.06,10.24,0,16.7,4.82,16.7,14.1v14.4a2.39,2.39,0,0,0,2.67,2.37H574a.35.35,0,0,1,.37.37v6.68a.35.35,0,0,1-.37.37h-3.78c-3.86,0-5.86-1.48-7.27-3.56a.42.42,0,0,0-.67,0C560.31,238.55,556.37,240.93,550.51,240.93Zm10.76-16.18a.35.35,0,0,0-.37-.37h-8.46c-6.6,0-7.72,2.67-7.72,4.6,0,1.56,1.34,3.78,5.79,3.78C558.16,232.76,561.27,228.46,561.27,224.75Z"/><path d="M581.38,240.19a.35.35,0,0,1-.37-.37v-51.5a.35.35,0,0,1,.37-.37h8.16a.35.35,0,0,1,.37.37v51.5a.35.35,0,0,1-.37.37Z"/><path d="M327.94,309.86a.35.35,0,0,1-.37-.37V266.67c0-.37-.59-.52-.74,0l-9.72,43c0,.15-.22.22-.37.22H303c-.15,0-.37-.07-.37-.22l-9.65-43c-.15-.52-.74-.37-.74,0v42.82a.35.35,0,0,1-.37.37h-8.16a.35.35,0,0,1-.37-.37V258a.35.35,0,0,1,.37-.37h15.43a.47.47,0,0,1,.52.37l9.87,42.67c.15.52.59.52.74,0L320.15,258a.45.45,0,0,1,.45-.37H336.1a.35.35,0,0,1,.37.37v51.5a.35.35,0,0,1-.37.37Z"/><path d="M356.8,310.6c-10.09,0-14.69-5.19-14.69-11.95,0-6.38,5.42-12,16.25-12h7c1.48,0,2.23-.89,2.23-1.63,0-1.56-.52-5.27-7.79-5.27-5.64,0-7.27,2.38-7.49,4.9a.35.35,0,0,1-.37.37h-8.09a.35.35,0,0,1-.37-.37c0-8.76,7.57-13.06,16.32-13.06,10.24,0,16.7,4.82,16.7,14.1v14.4a2.39,2.39,0,0,0,2.67,2.38h1.11a.35.35,0,0,1,.37.37v6.68a.35.35,0,0,1-.37.37h-3.78c-3.86,0-5.86-1.48-7.27-3.56a.42.42,0,0,0-.67,0C366.6,308.23,362.66,310.6,356.8,310.6Zm10.76-16.18a.35.35,0,0,0-.37-.37h-8.46c-6.6,0-7.72,2.67-7.72,4.6,0,1.56,1.34,3.79,5.79,3.79C364.44,302.44,367.56,298.13,367.56,294.42Z"/><path d="M417.57,284.63c.07.3-.15.37-.37.37h-8.38a.56.56,0,0,1-.52-.37c-1.26-3.26-3.71-5.19-8-5.19-6.23,0-9.2,5-9.2,11.65s3,11.65,9.2,11.65c5,0,6.9-1.93,8.16-5.19a.56.56,0,0,1,.52-.37h8.38c.22,0,.45.07.37.37-1.56,8.46-8.09,13.06-17.44,13.06-11.58,0-18.18-7.94-18.18-19.52s6.6-19.52,18.18-19.52C409.71,271.57,416.31,276.69,417.57,284.63Z"/><path d="M447.25,309.86a.35.35,0,0,1-.37-.37V289.23c0-4.45-2.37-9.2-8.24-9.2s-8.16,4-8.16,8.46v21a.35.35,0,0,1-.37.37h-8.16a.35.35,0,0,1-.37-.37V258a.35.35,0,0,1,.37-.37h8.16a.4.4,0,0,1,.37.37v16.84c0,.45.37.59.74.22a13.79,13.79,0,0,1,8.9-3.49c10.83,0,15.66,8.31,15.66,17.66v20.26a.35.35,0,0,1-.37.37Z"/><path d="M463.05,268.16a.35.35,0,0,1-.37-.37V258a.35.35,0,0,1,.37-.37h9.65a.35.35,0,0,1,.37.37v9.79a.35.35,0,0,1-.37.37Zm.74,41.7a.35.35,0,0,1-.37-.37v-36.8a.35.35,0,0,1,.37-.37H472a.35.35,0,0,1,.37.37v36.8a.35.35,0,0,1-.37.37Z"/><path d="M498.74,271.57c11.65,0,15.66,8.31,15.66,17.66v20.26a.35.35,0,0,1-.37.37h-8.16a.35.35,0,0,1-.37-.37V289.23c0-4.45-2.37-9.5-8.24-9.5s-8.16,4.3-8.16,8.76v21a.35.35,0,0,1-.37.37h-8.16a.35.35,0,0,1-.37-.37v-36.8a.35.35,0,0,1,.37-.37h7c.45,0,.59.07.67.37l.82,2.3a.46.46,0,0,0,.82.07A14.71,14.71,0,0,1,498.74,271.57Z"/><path d="M554.32,294.5H528.49a.35.35,0,0,0-.37.37c0,4.08,3.56,7.57,8.83,7.57,3.26,0,5.94-.82,7.2-3.34a.61.61,0,0,1,.59-.37h8.68c.22,0,.45.15.37.37-1.63,7.2-8.39,11.5-16.84,11.5-10.83,0-18.11-7.94-18.11-19.52s7.27-19.52,18.11-19.52,18.11,7.94,18.11,19.52a14,14,0,0,1-.37,3C554.61,294.35,554.54,294.5,554.32,294.5Zm-9.05-7.42c.22,0,.3-.07.3-.3,0-3-2.52-7-8.61-7s-8.83,4.16-8.83,7c0,.22.07.3.3.3Z"/><path d="M576.65,310.6c-11.06,0-16.92-6.38-16.92-13.06a.35.35,0,0,1,.37-.37h8.53a.35.35,0,0,1,.37.37c0,2.37,2.3,4.9,7.64,4.9,3.12,0,7.57-.59,7.57-4.23,0-3.26-4.53-3.26-7.57-3.56-7.64-.82-16.25-2.15-16.25-11.5,0-6.38,6.23-11.58,15.51-11.58s16.18,4.45,16.25,13.06c0,.22-.07.37-.3.37h-8.31a.35.35,0,0,1-.37-.37c0-2.08-1.85-4.9-7.27-4.9-4.45,0-6.6,1.48-6.6,3.41,0,2.37,3.19,2.82,6.6,3.26,6.53.82,17.22,1.26,17.22,11.8C593.12,306.15,586.74,310.6,576.65,310.6Z"/></svg>