<svg id="Layer_1" data-name="Layer 1" xmlns="http://www.w3.org/2000/svg" viewBox="0 0 612 511.16"><title>Artboard 1 copy</title><path d="M57.41,153.67a.47.47,0,0,1,.45-.37h8.46c.3,0,.37.15.37.37,0,3.41-4.53,17.81-22,17.81-15.66,0-23.37-10.61-23.37-26.34S29,117.75,44.65,117.75c16.55,0,22,13.21,22,17.81,0,.22-.07.37-.37.37H57.79a.47.47,0,0,1-.45-.37c-.74-2.23-3.27-9.57-12.69-9.57-8.9,0-14.1,7.87-14.1,19.14s5.19,18.11,14.1,18.11C54.15,163.24,56.82,155.52,57.41,153.67Z"/><path d="M98.74,170.73a.35.35,0,0,1-.37-.37V150.11c0-4.45-2.37-9.2-8.24-9.2s-8.16,4-8.16,8.46v21a.35.35,0,0,1-.37.37H73.44a.35.35,0,0,1-.37-.37v-51.5a.35.35,0,0,1,.37-.37H81.6a.4.4,0,0,1,.37.37v16.84c0,.45.37.59.74.22a13.79,13.79,0,0,1,8.9-3.49c10.83,0,15.66,8.31,15.66,17.66v20.26a.35.35,0,0,1-.37.37Z"/><path d="M116,129a.35.35,0,0,1-.37-.37v-9.79a.35.35,0,0,1,.37-.37h9.65a.35.35,0,0,1,.37.37v9.79a.35.35,0,0,1-.37.37Zm.74,41.7a.35.35,0,0,1-.37-.37v-36.8a.35.35,0,0,1,.37-.37h8.16a.35.35,0,0,1,.37.37v36.8a.35.35,0,0,1-.37.37Z"/><path d="M153.05,132.45c11.65,0,15.66,8.31,15.66,17.66v20.26a.35.35,0,0,1-.37.37h-8.16a.35.35,0,0,1-.37-.37V150.11c0-4.45-2.37-9.5-8.24-9.5s-8.16,4.3-8.16,8.76v21a.35.35,0,0,1-.37.37h-8.16a.35.35,0,0,1-.37-.37v-36.8a.35.35,0,0,1,.37-.37h7c.45,0,.59.07.67.37l.82,2.3a.46.46,0,0,0,.82.07A14.7,14.7,0,0,1,153.05,132.45Z"/><path d="M210,155.37H184.14a.35.35,0,0,0-.37.37c0,4.08,3.56,7.57,8.83,7.57,3.26,0,5.94-.82,7.2-3.34a.61.61,0,0,1,.59-.37h8.68c.22,0,.45.15.37.37-1.63,7.2-8.38,11.5-16.84,11.5-10.83,0-18.11-7.94-18.11-19.52s7.27-19.52,18.11-19.52,18.11,7.94,18.11,19.52a14.05,14.05,0,0,1-.37,3C210.26,155.23,210.19,155.37,210,155.37ZM200.91,148c.22,0,.3-.07.3-.3,0-3-2.52-7-8.61-7s-8.83,4.16-8.83,7c0,.22.07.3.3.3Z"/><path d="M232.3,171.48c-11.06,0-16.92-6.38-16.92-13.06a.35.35,0,0,1,.37-.37h8.53a.35.35,0,0,1,.37.37c0,2.37,2.3,4.9,7.64,4.9,3.12,0,7.57-.59,7.57-4.23,0-3.27-4.53-3.27-7.57-3.56-7.64-.82-16.25-2.15-16.25-11.5,0-6.38,6.23-11.58,15.51-11.58s16.18,4.45,16.25,13.06c0,.22-.07.37-.3.37H239.2a.35.35,0,0,1-.37-.37c0-2.08-1.86-4.9-7.27-4.9-4.45,0-6.6,1.48-6.6,3.41,0,2.37,3.19,2.82,6.6,3.27,6.53.82,17.22,1.26,17.22,11.8C248.77,167,242.39,171.48,232.3,171.48Z"/><path d="M288.76,155.37H262.94a.35.35,0,0,0-.37.37c0,4.08,3.56,7.57,8.83,7.57,3.26,0,5.94-.82,7.2-3.34a.61.61,0,0,1,.59-.37h8.68c.22,0,.45.15.37.37-1.63,7.2-8.38,11.5-16.84,11.5-10.83,0-18.11-7.94-18.11-19.52s7.27-19.52,18.11-19.52,18.11,7.94,18.11,19.52a14.05,14.05,0,0,1-.37,3C289.06,155.23,289,155.37,288.76,155.37ZM279.71,148c.22,0,.3-.07.3-.3,0-3-2.52-7-8.61-7s-8.83,4.16-8.83,7c0,.22.07.3.3.3Z"/><path d="M27.21,198.71a.35.35,0,0,1-.37-.37v-9.79a.35.35,0,0,1,.37-.37h9.65a.35.35,0,0,1,.37.37v9.79a.35.35,0,0,1-.37.37Zm.74,41.7a.35.35,0,0,1-.37-.37v-36.8a.35.35,0,0,1,.37-.37h8.16a.35.35,0,0,1,.37.37V240a.35.35,0,0,1-.37.37Z"/><path d="M64.31,202.12C76,202.12,80,210.43,80,219.78V240a.35.35,0,0,1-.37.37H71.44a.35.35,0,0,1-.37-.37V219.78c0-4.45-2.37-9.5-8.24-9.5s-8.16,4.3-8.16,8.76v21a.35.35,0,0,1-.37.37H46.13a.35.35,0,0,1-.37-.37v-36.8a.35.35,0,0,1,.37-.37h7c.45,0,.59.07.67.37l.82,2.3a.46.46,0,0,0,.82.07A14.7,14.7,0,0,1,64.31,202.12Z"/><path d="M104.75,210.65a.35.35,0,0,1-.37-.37v-7a.35.35,0,0,1,.37-.37h6.08a.35.35,0,0,0,.37-.37v-10a.35.35,0,0,1,.37-.37h8.16a.35.35,0,0,1,.37.37v10a.35.35,0,0,0,.37.37H128a.35.35,0,0,1,.37.37v7a.35.35,0,0,1-.37.37h-7.57a.35.35,0,0,0-.37.37v18.85a2.42,2.42,0,0,0,2.67,2.37H128a.35.35,0,0,1,.37.37V240a.35.35,0,0,1-.37.37h-5.79c-7.79,0-11.06-3-11.06-10.46V211a.35.35,0,0,0-.37-.37Z"/><path d="M161.59,240.41a.35.35,0,0,1-.37-.37V219.78c0-4.45-2.37-9.2-8.24-9.2s-8.16,4-8.16,8.46v21a.35.35,0,0,1-.37.37h-8.16a.35.35,0,0,1-.37-.37v-51.5a.35.35,0,0,1,.37-.37h8.16a.4.4,0,0,1,.37.37v16.84c0,.45.37.59.74.22a13.79,13.79,0,0,1,8.9-3.49c10.83,0,15.66,8.31,15.66,17.66V240a.35.35,0,0,1-.37.37Z"/><path d="M211.67,225H185.85a.35.35,0,0,0-.37.37c0,4.08,3.56,7.57,8.83,7.57,3.26,0,5.94-.82,7.2-3.34a.61.61,0,0,1,.59-.37h8.68c.22,0,.45.15.37.37-1.63,7.2-8.38,11.5-16.84,11.5-10.83,0-18.11-7.94-18.11-19.52s7.27-19.52,18.11-19.52,18.11,7.94,18.11,19.52a14.05,14.05,0,0,1-.37,3C212,224.9,211.89,225,211.67,225Zm-9.05-7.42c.22,0,.3-.07.3-.3,0-3-2.52-7-8.61-7s-8.83,4.16-8.83,7c0,.22.07.3.3.3Z"/><path d="M27.21,310.08a.35.35,0,0,1-.37-.37v-51.5a.35.35,0,0,1,.37-.37h8.16a.35.35,0,0,1,.37.37v51.5a.35.35,0,0,1-.37.37Z"/><path d="M62.83,271.79c11.65,0,15.66,8.31,15.66,17.66v20.26a.35.35,0,0,1-.37.37H70a.35.35,0,0,1-.37-.37V289.45c0-4.45-2.37-9.5-8.24-9.5s-8.16,4.3-8.16,8.76v21a.35.35,0,0,1-.37.37H44.65a.35.35,0,0,1-.37-.37V272.9a.35.35,0,0,1,.37-.37h7c.45,0,.59.07.67.37l.82,2.3a.46.46,0,0,0,.82.07A14.71,14.71,0,0,1,62.83,271.79Z"/><path d="M89.24,272.53c.15,0,.37-.07.37-.3V268.3c0-7,4.6-10.54,11.06-10.46h5.86c.15,0,.3.22.3.37v7.42a.35.35,0,0,1-.37.37h-5.27a2.42,2.42,0,0,0-2.67,2.38v3.86c0,.22.15.3.37.3h7.57a.35.35,0,0,1,.37.37v7a.35.35,0,0,1-.37.37H98.89a.35.35,0,0,0-.37.37v29a.35.35,0,0,1-.37.37H90a.35.35,0,0,1-.37-.37v-29a.35.35,0,0,0-.37-.37H83.16a.35.35,0,0,1-.37-.37v-7a.35.35,0,0,1,.37-.37Z"/><path d="M129,310.82c-11.58,0-18.4-7.94-18.4-19.52s6.83-19.52,18.4-19.52,18.48,7.94,18.48,19.52S140.59,310.82,129,310.82ZM129,280c-6.23,0-9.5,4.38-9.5,11.35s3.26,11.35,9.5,11.35,9.57-4.38,9.57-11.35S135.32,280,129,280Z"/><path d="M162.55,288.71v21a.35.35,0,0,1-.37.37h-8.24a.34.34,0,0,1-.3-.37V272.9a.34.34,0,0,1,.3-.37h7.12a.69.69,0,0,1,.74.45l.74,2.23a.4.4,0,0,0,.67.15,11,11,0,0,1,8.24-3.56h4.08a.35.35,0,0,1,.37.37V280a.35.35,0,0,1-.37.37h-4.82C164.93,280.32,162.55,284.26,162.55,288.71Z"/><path d="M227.48,310.08a.35.35,0,0,1-.37-.37V289.15c0-4.45-1.63-9.2-6.75-9.2s-6.68,4-6.68,9.2v20.55a.35.35,0,0,1-.37.37h-8.16a.35.35,0,0,1-.37-.37V289.15c0-4.45-1.63-9.2-6.75-9.2s-6.68,4-6.68,9.2v20.55a.35.35,0,0,1-.37.37h-8.16a.35.35,0,0,1-.37-.37V272.9a.35.35,0,0,1,.37-.37h7a.69.69,0,0,1,.74.45l.74,2.23a.4.4,0,0,0,.67.15,14.88,14.88,0,0,1,9-3.56c4.38,0,7.72,1.78,9.65,4.38a.35.35,0,0,0,.59,0,12.92,12.92,0,0,1,9.87-4.38c9.35,0,14.92,5.34,14.92,16.92v21a.35.35,0,0,1-.37.37Z"/><path d="M258.19,310.82c-10.09,0-14.69-5.19-14.69-11.95,0-6.38,5.42-12,16.25-12h7c1.48,0,2.23-.89,2.23-1.63,0-1.56-.52-5.27-7.79-5.27-5.64,0-7.27,2.38-7.5,4.9a.35.35,0,0,1-.37.37h-8.09a.35.35,0,0,1-.37-.37c0-8.76,7.57-13.06,16.33-13.06,10.24,0,16.7,4.82,16.7,14.1v14.4a2.39,2.39,0,0,0,2.67,2.38h1.11a.35.35,0,0,1,.37.37v6.68a.35.35,0,0,1-.37.37h-3.79c-3.86,0-5.86-1.48-7.27-3.56a.42.42,0,0,0-.67,0C268,308.45,264.05,310.82,258.19,310.82ZM269,294.65a.35.35,0,0,0-.37-.37h-8.46c-6.6,0-7.72,2.67-7.72,4.6,0,1.56,1.33,3.79,5.79,3.79C265.84,302.66,269,298.36,269,294.65Z"/><path d="M283.79,280.32a.35.35,0,0,1-.37-.37v-7a.35.35,0,0,1,.37-.37h6.08a.35.35,0,0,0,.37-.37v-10a.35.35,0,0,1,.37-.37h8.16a.35.35,0,0,1,.37.37v10a.35.35,0,0,0,.37.37h7.57a.35.35,0,0,1,.37.37v7a.35.35,0,0,1-.37.37h-7.57a.35.35,0,0,0-.37.37v18.85a2.42,2.42,0,0,0,2.67,2.38h5.27a.35.35,0,0,1,.37.37v7.42a.35.35,0,0,1-.37.37H301.3c-7.79,0-11.06-3-11.06-10.46V280.7a.35.35,0,0,0-.37-.37Z"/><path d="M315.32,268.38A.35.35,0,0,1,315,268v-9.79a.35.35,0,0,1,.37-.37H325a.35.35,0,0,1,.37.37V268a.35.35,0,0,1-.37.37Zm.74,41.7a.35.35,0,0,1-.37-.37V272.9a.35.35,0,0,1,.37-.37h8.16a.35.35,0,0,1,.37.37v36.8a.35.35,0,0,1-.37.37Z"/><path d="M349.75,310.82c-11.58,0-18.4-7.94-18.4-19.52s6.83-19.52,18.4-19.52,18.48,7.94,18.48,19.52S361.33,310.82,349.75,310.82Zm0-30.87c-6.23,0-9.5,4.38-9.5,11.35s3.26,11.35,9.5,11.35,9.57-4.38,9.57-11.35S356.06,280,349.75,280Z"/><path d="M393.08,271.79c11.65,0,15.66,8.31,15.66,17.66v20.26a.35.35,0,0,1-.37.37h-8.16a.35.35,0,0,1-.37-.37V289.45c0-4.45-2.37-9.5-8.24-9.5s-8.16,4.3-8.16,8.76v21a.35.35,0,0,1-.37.37H374.9a.35.35,0,0,1-.37-.37V272.9a.35.35,0,0,1,.37-.37h7c.45,0,.59.07.67.37l.82,2.3a.46.46,0,0,0,.82.07A14.71,14.71,0,0,1,393.08,271.79Z"/><path d="M37,369a.56.56,0,0,0-.52.37L36,370.78l-2.75,8.61a.45.45,0,0,1-.44.37H24.32a.4.4,0,0,1-.37-.52l16.47-51.35a.55.55,0,0,1,.45-.37H54.22a.55.55,0,0,1,.45.37l16.4,51.35a.4.4,0,0,1-.37.52H62.16a.55.55,0,0,1-.44-.37l-2.45-7.79-.74-2.23A.56.56,0,0,0,58,369Zm2.3-8.53c-.07.22.07.37.3.37H55.48c.22,0,.3-.15.22-.37L47.92,336a.39.39,0,0,0-.74,0Z"/><path d="M90.8,341.47A14.66,14.66,0,0,1,100.89,345a.38.38,0,0,0,.59,0l.74-2.37c.15-.37.3-.45.74-.45h7a.35.35,0,0,1,.37.37v36.06c0,10-7.87,16.55-18.11,16.55-9.5,0-16.7-5.71-16.7-12.24a.35.35,0,0,1,.37-.37h8a.47.47,0,0,1,.45.37c.22,1,2.23,4.08,7.87,4.08,6.9,0,9-4,9.2-8.38v-1.56c0-.3-.45-.37-.59-.22A15.16,15.16,0,0,1,90.8,380.5c-9.35,0-16.92-7.94-16.92-19.52S81.45,341.47,90.8,341.47Zm1.48,30.87c6.23,0,9.2-3.93,9.2-11.35,0-6.68-3-11.35-9.2-11.35s-9.5,4.67-9.5,11.35S86,372.33,92.29,372.33Z"/><path d="M151.87,364.39H126a.35.35,0,0,0-.37.37c0,4.08,3.56,7.57,8.83,7.57,3.26,0,5.94-.82,7.2-3.34a.61.61,0,0,1,.59-.37H151c.22,0,.45.15.37.37-1.63,7.2-8.38,11.5-16.84,11.5-10.83,0-18.11-7.94-18.11-19.52s7.27-19.52,18.11-19.52,18.11,7.94,18.11,19.52a14,14,0,0,1-.37,3C152.17,364.25,152.09,364.39,151.87,364.39ZM142.82,357c.22,0,.3-.07.3-.3,0-3-2.52-7-8.61-7s-8.83,4.16-8.83,7c0,.22.07.3.3.3Z"/></svg>